<?xml version="1.0" encoding="UTF-8"?>
<svg class="bi bi-app" width="16" height="16" background="#1e90ff" version="1.1" viewBox="0 0 16 16" xmlns="http://www.w3.org/2000/svg">
 <g>
  <rect x="1.25" y="1.3" width="13.495" height="13.299" rx="3.0448" ry="2.978" fill="#2fa1ff"/>
  <path d="M11 2a3 3 0 0 1 3 3v6a3 3 0 0 1-3 3H5a3 3 0 0 1-3-3V5a3 3 0 0 1 3-3zM5 1a4 4 0 0 0-4 4v6a4 4 0 0 0 4 4h6a4 4 0 0 0 4-4V5a4 4 0 0 0-4-4z"/>
  <path d="m7.7776 3.0468a0.31539 0.31539 0 0 1 0.44659 0l1.2615 1.2615a0.31578 0.31578 0 0 1-0.44659 0.44659l-0.72287-0.7235v2.3925a0.31539 0.31539 0 0 1-0.63077 0v-2.3925l-0.72287 0.7235a0.31578 0.31578 0 1 1-0.44659-0.44659zm0.22329 6.2156a0.31539 0.31539 0 0 1 0.31539 0.31539v2.3925l0.72287-0.7235a0.31578 0.31578 0 0 1 0.44659 0.44659l-1.2615 1.2615a0.31539 0.31539 0 0 1-0.44659 0l-1.2615-1.2615a0.31578 0.31578 0 0 1 0.44659-0.44659l0.72287 0.7235v-2.3925a0.31539 0.31539 0 0 1 0.31539-0.31539m-4.9541-1.0383a0.31539 0.31539 0 0 1 0-0.44659l1.2615-1.2615a0.31578 0.31578 0 1 1 0.44659 0.44659l-0.7235 0.72287h2.3925a0.31539 0.31539 0 0 1 0 0.63077h-2.3925l0.7235 0.72287a0.31578 0.31578 0 0 1-0.44659 0.44659zm6.2156-0.22329a0.31539 0.31539 0 0 1 0.31539-0.31539h2.3925l-0.7235-0.72287a0.31578 0.31578 0 0 1 0.44659-0.44659l1.2615 1.2615a0.31539 0.31539 0 0 1 0 0.44659l-1.2615 1.2615a0.31578 0.31578 0 0 1-0.44659-0.44659l0.7235-0.72287h-2.3925a0.31539 0.31539 0 0 1-0.31539-0.31539" fill-rule="evenodd" stroke-width=".63077"/>
 </g>
 <path d="m6.6151 9.3552a0.31539 0.31539 0 0 0-0.44596 0l-2.5836 2.5836v-1.746a0.31539 0.31539 0 0 0-0.63077 0v2.5073a0.31539 0.31539 0 0 0 0.31539 0.31539h2.5073a0.31539 0.31539 0 0 0 0-0.63077h-1.746l2.5836-2.5836a0.31539 0.31539 0 0 0 0-0.44596m2.7401 0a0.31539 0.31539 0 0 1 0.44596 0l2.5836 2.5836v-1.746a0.31539 0.31539 0 1 1 0.63077 0v2.5073a0.31539 0.31539 0 0 1-0.31539 0.31539h-2.5073a0.31539 0.31539 0 0 1 0-0.63077h1.746l-2.5836-2.5836a0.31539 0.31539 0 0 1 0-0.44596m0-2.7401a0.31539 0.31539 0 0 0 0.44596 0l2.5836-2.5836v1.746a0.31539 0.31539 0 1 0 0.63077 0v-2.5073a0.31539 0.31539 0 0 0-0.31539-0.31539h-2.5073a0.31539 0.31539 0 0 0 0 0.63077h1.746l-2.5836 2.5836a0.31539 0.31539 0 0 0 0 0.44596m-2.7401 0a0.31539 0.31539 0 0 1-0.44596 0l-2.5836-2.5836v1.746a0.31539 0.31539 0 0 1-0.63077 0v-2.5073a0.31539 0.31539 0 0 1 0.31539-0.31539h2.5073a0.31539 0.31539 0 0 1 0 0.63077h-1.746l2.5836 2.5836a0.31539 0.31539 0 0 1 0 0.44596" fill-rule="evenodd" stroke-width=".63077"/>
</svg>
